<?xml version="1.0" standalone="no"?><!DOCTYPE svg PUBLIC "-//W3C//DTD SVG 1.1//EN" "http://www.w3.org/Graphics/SVG/1.1/DTD/svg11.dtd"><svg t="1605000838990" class="icon" viewBox="0 0 1077 1024" version="1.1" xmlns="http://www.w3.org/2000/svg" p-id="6296" xmlns:xlink="http://www.w3.org/1999/xlink" width="210.3515625" height="200"><defs><style type="text/css"></style></defs><path d="M589.801227 223.841462a24.68964 24.68964 0 0 0-39.176484 22.547616l46.335352 414.988881a24.68964 24.68964 0 0 0 44.136959 12.232082l93.516239-122.208081a41.205769 41.205769 0 0 1 27.338985-15.783332l152.647364-19.898271a24.633271 24.633271 0 0 0 11.273808-44.306067z" p-id="6297"></path><path d="M1076.998849 107.890345a110.765166 110.765166 0 0 0-5.185952-32.975889C1057.213315 29.086425 1016.007546 0 965.895469 0H111.340806C46.516409 0 0.01195 46.842673 0.01195 111.328856v603.599692a115.78201 115.78201 0 0 0 2.987559 27.846306c11.893868 50.450292 54.790708 83.313443 107.664869 83.313443h860.642519a108.003083 108.003083 0 0 0 105.917428-107.664869q0.169107-305.463834-0.225476-610.533083z m-71.532313 466.284707h-118.374987a36.245293 36.245293 0 0 0-35.907079 36.301663 36.245293 36.245293 0 0 0 36.245294 36.245293h117.867665c0 1.916547 0.394583 3.382142 0.394583 4.678631v65.500825a36.019817 36.019817 0 0 1-35.625234 37.203567H114.441104a104.677309 104.677309 0 0 1-12.739404-0.676428 33.821425 33.821425 0 0 1-29.36827-30.946604c-0.958274-25.027854-0.338214-50.055708-0.338214-75.929098h426.939117a36.301662 36.301662 0 0 0 36.583507-36.076186 36.301662 36.301662 0 0 0-36.301662-36.301663H71.882478V112.738082c0-26.662556 13.923153-40.698448 40.811185-40.698448h851.848949a40.923924 40.923924 0 0 1 40.923924 40.698448zM550.681112 1023.887262h-352.870197a56.369041 56.369041 0 0 1-15.614224-1.521964 35.568865 35.568865 0 0 1-26.493449-37.992734 36.865353 36.865353 0 0 1 33.821424-32.243091h714.872179a61.554993 61.554993 0 0 1 17.530772 2.480237 34.497853 34.497853 0 0 1 22.829461 39.458329 34.948805 34.948805 0 0 1-33.088627 29.762854h-10.54101z" p-id="6298" fill="#6E78F7"></path></svg>