<?xml version="1.0" standalone="no"?><!DOCTYPE svg PUBLIC "-//W3C//DTD SVG 1.1//EN" "http://www.w3.org/Graphics/SVG/1.1/DTD/svg11.dtd"><svg t="1604998646621" class="icon" viewBox="0 0 1024 1024" version="1.1" xmlns="http://www.w3.org/2000/svg" p-id="3317" xmlns:xlink="http://www.w3.org/1999/xlink" width="200" height="200"><defs><style type="text/css"></style></defs><path d="M891.075 594.032l-36.157-39.12c160.448-148.43 84.958-305.652 81.681-312.258-40.842-74.24-98.382-121.518-165.885-135.851-66.594-14.178-131.441 6.243-166.288 32.725-86.792 65.93-298.105 298.198-300.224 300.541l-39.433-35.846c8.803-9.678 216.778-238.251 307.433-307.122 41.267-31.319 120.906-61.195 209.597-42.412 57.958 12.304 140.027 50.595 201.936 163.179 1.427 2.752 98.04 199.723-92.66 376.165zM160.011 604.229c-224.749-147.437-120.503-379.107-119.423-381.421 79.09-144.294 205.815-160.383 242.79-161.907 135.879-5.945 233.593 106.015 237.705 110.763l-40.308 34.832c-0.844-0.962-85.765-97.106-195.187-92.371-29.929 1.235-132.627 14.476-197.489 132.717-2.743 6.141-84.62 191.013 101.125 312.857l-29.212 44.532zM567.724 1023.091c-26.453 0-60.441-11.134-96.65-51.557l39.694-35.533c18.168 20.288 45.599 42.062 73.11 30.54 21.665-9.027 20.343-56.056 18.807-68.155l-3.941-30.981 31.204 0.937c24.464 0.233 41.947-4.422 51.83-15.503 14.566-16.31 10.935-42.636 10.898-42.893l-4.928-33.898 34.025 3.357c23.89 2.498 41.32-1.666 51.65-12.356 15.841-16.387 15.475-47.445 14.023-58.033l-8.558-61.493 50.437 36.051c6.141 4.344 26.249-1.874 41.413-19.481 9.259-10.746 21.982-31.685 3.125-51.091-45.602-46.98-167.548-168.094-214.634-214.786-31.111 30.695-88.34 84.098-122.117 97.078-141.002 54.16-229.028-30.798-255.885-83.319l47.368-24.374c2.327 4.45 58.595 108.29 189.4 57.955 23.788-9.129 85.622-66.048 121.949-103.53l18.73-19.354 19.146 18.938c1.766 1.769 177.158 175.455 234.282 234.297 33.246 34.233 32.855 83.658-0.987 122.936-17.976 20.886-44.535 36.963-70.653 39.151-2.287 20.548-9.365 45.86-28.405 65.756-16.725 17.482-39.042 27.263-66.551 29.24-2.042 16.648-8.04 37.199-23.515 54.809-15.751 17.923-37.615 28.796-65.192 32.464-1.3 35.691-13.408 79.186-52.404 95.443-9.191 3.842-21.74 7.382-36.672 7.382zM183.749 759.452c-23.996 0-48.227-10.901-66.513-29.941-15.4-16.024-24.961-36.184-26.897-56.761-2.132-22.528 5.281-43.728 20.343-58.191l129.505-124.366c28.874-27.729 82.292-22.422 114.614 11.264 15.397 15.999 24.958 36.157 26.897 56.761 2.135 22.5-5.281 43.728-20.316 58.191l-129.524 124.363c-12.577 12.046-29.665 18.68-48.109 18.68zM288.281 524.788c-3.277 0-7.894 0.676-11.211 3.851l-129.489 124.338c-4.462 4.295-4.552 11.109-4.202 14.777 0.807 8.505 5.281 17.585 12.279 24.871 12.331 12.769 31.384 17.296 39.331 9.703l129.48-124.342c4.462-4.291 4.54-11.109 4.202-14.777-0.807-8.505-5.281-17.56-12.291-24.843-8.17-8.505-18.668-13.579-28.098-13.579zM268.76 845.164c-23.996 0-48.24-10.901-66.489-29.916-33.413-34.754-36.364-86.336-6.594-114.98l129.517-124.366c28.926-27.704 82.317-22.422 114.626 11.264 15.397 16.024 24.958 36.184 26.897 56.761 2.135 22.528-5.281 43.728-20.343 58.191l-129.505 124.366c-12.564 12.046-29.643 18.68-48.109 18.68zM373.304 610.5c-3.292 0-7.907 0.676-11.239 3.851l-129.48 124.338c-7.363 7.075-5.865 25.131 8.09 39.644 8.155 8.505 18.649 13.551 28.079 13.551 3.292 0 7.907-0.652 11.224-3.848l129.493-124.342c4.475-4.291 4.552-11.106 4.214-14.777-0.807-8.505-5.281-17.557-12.279-24.843-8.161-8.502-18.671-13.576-28.101-13.576zM353.795 930.9c-23.996 0-48.24-10.901-66.517-29.938-33.401-34.726-36.368-86.311-6.594-114.952l129.517-124.366c28.939-27.679 82.292-22.373 114.614 11.211 33.417 34.804 36.355 86.388 6.569 115.005l-129.468 124.366c-12.589 12.04-29.68 18.674-48.122 18.674zM458.327 696.24c-4.785 0-8.571 1.3-11.248 3.848l-129.48 124.342c-7.363 7.075-5.868 25.104 8.09 39.619 8.167 8.505 18.677 13.579 28.107 13.579 3.289 0 7.907-0.676 11.236-3.851l129.44-124.338c7.388-7.075 5.89-25.131-8.065-39.669-8.152-8.484-18.649-13.529-28.079-13.529zM438.818 1016.612c-23.983 0-48.24-10.901-66.517-29.916-15.413-16.049-24.973-36.209-26.909-56.785-2.135-22.528 5.281-43.728 20.343-58.191l129.465-124.366c28.979-27.732 82.317-22.398 114.651 11.236 15.413 16.052 24.961 36.212 26.897 56.789 2.135 22.528-5.294 43.753-20.365 58.216l-129.452 124.342c-12.58 12.043-29.656 18.677-48.112 18.677zM543.325 781.952c-4.772 0-8.558 1.3-11.236 3.848l-129.44 124.342c-4.487 4.291-4.565 11.106-4.226 14.777 0.807 8.505 5.281 17.557 12.279 24.843 8.18 8.505 18.69 13.579 28.12 13.579 3.292 0 7.894-0.652 11.211-3.851l129.452-124.338c4.499-4.295 4.58-11.109 4.239-14.777-0.807-8.505-5.278-17.585-12.276-24.871-8.173-8.477-18.68-13.551-28.123-13.551zM588.471 628.543l149.304 149.346-37.672 37.662-149.304-149.346 37.672-37.662zM684.924 538.151l141.665 141.665-37.665 37.665-141.665-141.665 37.665-37.665z" p-id="3318" fill="#6E78F7"></path></svg>


