<?xml version="1.0" standalone="no"?><!DOCTYPE svg PUBLIC "-//W3C//DTD SVG 1.1//EN" "http://www.w3.org/Graphics/SVG/1.1/DTD/svg11.dtd"><svg t="1604999248564" class="icon" viewBox="0 0 1024 1024" version="1.1" xmlns="http://www.w3.org/2000/svg" p-id="5566" xmlns:xlink="http://www.w3.org/1999/xlink" width="200" height="200"><defs><style type="text/css"></style></defs><path d="M434.688 936.96l-103.424-87.04c-12.288-10.24-13.824-28.672-3.584-40.96 11.776-14.336 33.28-15.872 47.104-4.096l52.224 43.52 60.928-72.704h399.872c17.408 0 31.232-13.824 31.232-31.232v-563.2c0-17.408-13.824-31.232-31.232-31.232H136.192c-17.408 0-31.232 13.824-31.232 31.232v563.712c0 17.408 13.824 31.232 31.232 31.232h64.512c18.432 0 33.792 14.848 33.792 33.792 0 15.872-12.8 29.184-29.184 29.184H136.192c-51.712 0-94.208-41.984-94.208-94.208V181.248C41.984 129.024 83.968 87.04 136.192 87.04h751.616c51.712 0 94.208 41.984 94.208 94.208v563.712c0 51.712-41.984 94.208-94.208 94.208H517.12L434.688 936.96z m0 0" p-id="5567"></path><path d="M232.96 459.776c0 27.648 22.528 50.176 50.176 50.176s50.176-22.528 50.176-50.176-22.528-50.176-50.176-50.176c-27.648-0.512-50.176 22.016-50.176 50.176z m228.352 0c0 27.648 22.528 50.176 50.176 50.176s50.176-22.528 50.176-50.176-22.528-50.176-50.176-50.176c-27.648-0.512-50.176 22.016-50.176 50.176z m229.376 0c0 27.648 22.528 50.176 50.176 50.176s50.176-22.528 50.176-50.176-22.528-50.176-50.176-50.176c-27.648-0.512-50.176 22.016-50.176 50.176z m0 0" p-id="5568" fill="#6E78F7"></path></svg>